<?xml version="1.0" encoding="UTF-8"?>
<svg width="256" height="128" version="1.1" viewBox="0 0 67.733 33.867" xml:space="preserve" xmlns="http://www.w3.org/2000/svg"><g fill="#fff"><g transform="matrix(.75822 0 0 .75822 -1.3896 7.6655)" stroke-linejoin="round"><path d="m12.999 4.2597c-0.31466 0.00777-0.56741 0.25894-0.56741 0.56741 0 0.31337 0.26078 0.56741 0.58239 0.56741h18.075v0.39532c0 0.1826-0.12798 0.31264-0.31058 0.31264h-5.7635c-0.0066-2.15e-4 -0.013-0.00103-0.01964-0.00103v0.00103h-11.192v-0.00103c-0.0066 0-0.01305 8.185e-4 -0.01964 0.00103h-5.7635c-0.1826 0-0.31058-0.13005-0.31058-0.31264v-0.39532h1.1669v0.00103c0.32161 0 0.58239-0.25404 0.58239-0.56741 0-0.31337-0.26078-0.56741-0.58239-0.56741v0.00103h-2.9745c-0.79146 0-1.4454 0.65393-1.4454 1.4454v14.568c0 0.79146 0.65393 1.4454 1.4454 1.4454h26.973c0.79146 0 1.4475-0.65393 1.4475-1.4454v-14.568c0-0.79146-0.656-1.4454-1.4475-1.4454h-19.861v-0.00207c-5e-3 0-0.01-1.233e-4 -0.01499 0zm-7.0962 1.1348h0.67283v0.39532c1e-7 0.79146 0.65393 1.4454 1.4454 1.4454h5.7593c8e-3 3.145e-4 0.01573 0.00103 0.02377 0.00103v-0.00103h11.192v0.00103c8e-3 0 0.01581-7.19e-4 0.02377-0.00103h5.7593c0.79146 0 1.4454-0.65393 1.4454-1.4454v-0.39532h0.65112c0.1826 0 0.31264 0.13005 0.31264 0.31264v14.568c0 0.1826-0.13004 0.31058-0.31264 0.31058h-0.64492v-0.39946c0-0.79146-0.65393-1.4458-1.4454-1.4454l-1.8598 1e-3v-1e-3c-0.32161 0-0.58239 0.25404-0.58239 0.56741 0 0.31337 0.26078 0.56741 0.58239 0.56741v-1e-3l1.8598-1e-3c0.1826-1.01e-4 0.31058 0.13005 0.31058 0.31264v0.39946h-23.385v-0.39843c0-0.1826 0.12798-0.31264 0.31058-0.31264h16.975v1e-3c0.32161 0 0.58239-0.25404 0.58239-0.56741 0-0.31337-0.26078-0.56741-0.58239-0.56741v1e-3h-16.975c-0.79146 0-1.4454 0.65393-1.4454 1.4454v0.39843h-0.67283c-0.1826 0-0.31058-0.12798-0.31058-0.31058v-14.568c0-0.1826 0.12798-0.31264 0.31058-0.31264z" color="#000000"/><path d="m14.135 8.3416c-0.02684 0-0.05336 5.811e-4 -0.0801 0.00103h-5.0901c-0.79146 0-1.4454 0.65393-1.4454 1.4454v6.4012c-3.19e-5 0.79146 0.65393 1.4454 1.4454 1.4454h20.922c0.79146 0 1.4474-0.65393 1.4475-1.4454v-6.4012c3.2e-5 -0.79146-0.65548-1.4454-1.4469-1.4454h-15.753zm-5.1702 1.1338h2.1172c-0.99028 0.85245-1.619 2.1108-1.619 3.5114 0 1.4009 0.62895 2.66 1.6195 3.513h-2.1177c-0.1826 0-0.31058-0.12798-0.31058-0.31058v-6.4012c7.4e-6 -0.1826 0.12798-0.31264 0.31058-0.31264zm5.1702 0h0.02894c-0.0012 2.3423-0.0012 4.6835 0 7.0244h-0.02894v-0.05891c-1.9315 0-3.4809-1.5416-3.4809-3.4541 0-1.9125 1.5495-3.452 3.4809-3.452zm1.1617 0h8.2181c-0.0032 0.024862-0.0052 0.05022-0.0052 0.075964h1e-3c-9.96e-4 2.3168-0.0013 4.633 0 6.9484h-8.214c-2e-3 -2.3415-4.3e-4 -4.6829 0-7.0244zm9.3426 0h0.03152v0.059945c1.9315 0 3.4814 1.54 3.4814 3.4525 0 1.9125-1.55 3.4541-3.4814 3.4541v0.05788h-0.02739c-4.98e-4 -0.54932 1.4e-4 -1.0986 0-1.648 0.97831-2.98e-4 1.8883-0.84931 1.8883-1.8629s-0.90995-1.8559-1.8883-1.8562c1.67e-4 -0.5271-9.6e-5 -1.0542 0-1.5813h1e-3c0-0.025744-2e-3 -0.051102-0.0052-0.075964zm3.0835 0h2.1647c0.1826 0 0.31265 0.13005 0.31264 0.31264l-5.17e-4 6.4012c-7e-6 0.1826-0.13005 0.31058-0.31264 0.31058h-2.1627c0.99028-0.85297 1.619-2.1113 1.619-3.5119 0-1.4013-0.62949-2.66-1.6206-3.5124zm-13.559 1.6562c-0.9785-1e-6 -1.8888 0.84242-1.8888 1.8562s0.91027 1.8629 1.8888 1.8629v-1.2025c-0.33964 0-0.72916-0.28399-0.72916-0.66042 0-0.37644 0.38951-0.65577 0.72916-0.65577zm10.48 1.2015c0.33952 2.81e-4 0.72864 0.27952 0.72864 0.65577 0 0.37625-0.38912 0.66014-0.72864 0.66042 2.9e-5 -0.43873-1.18e-4 -0.87747 0-1.3162z" color="#000000"/><path d="m27.233 18.741c-0.31466 0.0078-0.56689 0.25893-0.56689 0.56741 0 0.31236 0.2586 0.56577 0.57878 0.56741 1e-3 6e-6 0.0021 0 0.0031 0 0.32018-0.0016 0.57929-0.25505 0.57929-0.56741s-0.25912-0.56577-0.57929-0.56741c-1e-3 0-0.0021-5e-6 -0.0031 0-4e-3 2e-5 -0.0079-9.8e-5 -0.01188 0z" stroke-width="3.7987"/><path d="m17.977 10.567c-0.32161 0-0.58239 0.25404-0.58239 0.56741 0 0.31337 0.26078 0.56741 0.58239 0.56741v-1e-3l1.4278-1e-3 1.4273 1e-3v1e-3c0.32161 0 0.58239-0.25404 0.58239-0.56741 0-0.31337-0.26078-0.56741-0.58239-0.56741v1e-3l-1.0397-5.16e-4v-5.17e-4h-0.77566v5.17e-4l-1.0397 5.16e-4z" color="#000000"/><path d="m17.962 12.424c-0.32161 0-0.58239 0.25404-0.58239 0.56741 0 0.31337 0.26078 0.56741 0.58239 0.56741v-1e-3l1.4278-1e-3 1.4273 1e-3v1e-3c0.32161 0 0.58239-0.25404 0.58239-0.56741 0-0.31337-0.26078-0.56741-0.58239-0.56741v1e-3l-1.0397-5.16e-4v-5.17e-4h-0.77566v5.17e-4l-1.0397 5.16e-4z" color="#000000"/><path d="m17.976 14.281c-0.32161 0-0.58239 0.25404-0.58239 0.56741 0 0.31337 0.26078 0.56741 0.58239 0.56741v-1e-3l1.4278-1e-3 1.4273 1e-3v1e-3c0.32161 0 0.58239-0.25404 0.58239-0.56741 0-0.31337-0.26078-0.56741-0.58239-0.56741v1e-3l-1.0397-5.16e-4v-5.17e-4h-0.77566v5.17e-4l-1.0397 5.16e-4z" color="#000000"/><path d="m10.628 4.2597c-0.31466 0.00777-0.56741 0.25894-0.56741 0.56741 0 0.31337 0.26079 0.56741 0.58239 0.56741 0.32161 0 0.58239-0.25404 0.58239-0.56741 0-0.31337-0.26078-0.56741-0.58239-0.56741-5e-3 0-0.01-1.233e-4 -0.01499 0z" color="#000000"/></g><g stroke-width=".36786" aria-label="filmit"><path d="m31.195 15.221h-2.5158v8.9748h-0.80292v-8.9748h-1.4631v-0.7137h1.4631v-0.67802q0-1.5166 0.76723-2.2482 0.76723-0.74939 2.5158-0.74939v0.7137q-1.3917 0-1.9448 0.53528-0.53528 0.53528-0.53528 1.7486v0.67802h2.5158z"/><path d="m33.658 12.348q-0.28548 0-0.48175-0.17843-0.19627-0.19627-0.19627-0.51744 0-0.30332 0.19627-0.49959 0.19627-0.19627 0.48175-0.19627 0.28548 0 0.48175 0.19627 0.19627 0.19627 0.19627 0.49959 0 0.32117-0.19627 0.51744-0.19627 0.17843-0.48175 0.17843zm0.39254 2.159v9.6885h-0.80292v-9.6885z"/><path d="m37.797 10.992v13.204h-0.80292v-13.204z"/><path d="m52.196 14.311q1.6594 0 2.7121 1.0706 1.0527 1.0527 1.0527 3.1403v5.6739h-0.78507v-5.6204q0-1.7307-0.8386-2.6407-0.82076-0.92782-2.266-0.92782-1.4988 0-2.4088 1.0349-0.90997 1.0349-0.90997 2.9976v5.1565h-0.78507v-5.6204q0-1.7307-0.8386-2.6407-0.82076-0.92782-2.266-0.92782-1.4988 0-2.4088 1.0349-0.90997 1.0349-0.90997 2.9976v5.1565h-0.80292v-9.6885h0.80292v2.1054q0.41038-1.1419 1.3204-1.7129 0.92782-0.5888 2.1233-0.5888 1.3204 0 2.266 0.69586 0.9635 0.67802 1.3204 2.0162 0.33901-1.3382 1.3204-2.0162 0.98134-0.69586 2.3017-0.69586z"/><path d="m59.226 12.348q-0.28548 0-0.48175-0.17843-0.19627-0.19627-0.19627-0.51744 0-0.30332 0.19627-0.49959 0.19627-0.19627 0.48175-0.19627 0.28548 0 0.48175 0.19627 0.19627 0.19627 0.19627 0.49959 0 0.32117-0.19627 0.51744-0.19627 0.17843-0.48175 0.17843zm0.39254 2.159v9.6885h-0.80292v-9.6885z"/><path d="m63.758 15.203v6.4055q0 1.0706 0.39254 1.4809 0.39254 0.39254 1.3917 0.39254h1.0884v0.7137h-1.2133q-1.2668 0-1.8735-0.58881-0.58881-0.60665-0.58881-1.9984v-6.4055h-1.4631v-0.69586h1.4631v-2.4623h0.80292v2.4623h2.8727v0.69586z"/></g></g></svg>
